<svg   id="chart"   width="1000"   height="200"   viewBox="0 0 1000 200"   xmlns="http://www.w3.org/2000/svg" >      <path d="M 0,50.74791841818018 C 8,53.07958764633083 24,49.13309473516856 40,62.40626455893343 C 56,75.6794343826983 64,102.9322380661388 80,117.11376753700452 C 96,131.29529700787026 104,138.49241087578983 120,133.31391191326207 C 136,128.13541295073432 144,107.28439990798478 160,91.22127272436575 C 176,75.15814554074672 184,61.33981685152471 200,52.99827599516695 C 216,44.65673513880919 224,40.26777886837921 240,49.51356844257697 C 256,58.75935801677473 264,91.54905312952154 280,99.22722386615577 C 296,106.90539460279001 304,99.71809644404975 320,87.90442212574816 C 336,76.09074780744658 344,27.008455076569494 360,40.15885227464784 C 376,53.309249472726194 384,132.14373469462166 400,153.65640811613991 C 416,175.16908153765817 424,148.76305665291656 440,147.72221938223913 C 456,146.6813821115617 464,155.41643508668642 480,148.4522217627528 C 496,141.48800843881918 504,132.7797569480253 520,112.90115276257103 C 536,93.0225485771168 544,65.0901756278456 560,49.05920083548159 C 576,33.028226043117584 584,31.204995464328924 600,32.746278800751014 C 616,34.287562137173104 624,33.35637286280422 640,56.765617517592034 C 656,80.17486217237985 664,149.55367638881725 680,149.79250207469008 C 696,150.0313277605629 704,70.69447635811211 720,57.95974594695613 C 736,45.22501553580015 744,74.0059405409642 760,86.1188500189102 C 776,98.23175949685618 784,128.82009633915686 800,118.52429333668606 C 816,108.22849033421525 824,29.3186759950835 840,34.639835006556154 C 856,39.960994018028806 864,134.66043728193702 880,145.13008839404932 C 896,155.59973950616163 904,105.7146528078848 920,86.98809056711761 C 936,68.26152832635043 944,51.423634969121956 960,51.497277190213396 C 976,51.570919411304835 992,80.18449677610253 1000,87.35630167257482,L 1000 200,L 0 200Z" fill="#1151fb1a" />   <path d="M 0,50.74791841818018 C 8,53.07958764633083 24,49.13309473516856 40,62.40626455893343 C 56,75.6794343826983 64,102.9322380661388 80,117.11376753700452 C 96,131.29529700787026 104,138.49241087578983 120,133.31391191326207 C 136,128.13541295073432 144,107.28439990798478 160,91.22127272436575 C 176,75.15814554074672 184,61.33981685152471 200,52.99827599516695 C 216,44.65673513880919 224,40.26777886837921 240,49.51356844257697 C 256,58.75935801677473 264,91.54905312952154 280,99.22722386615577 C 296,106.90539460279001 304,99.71809644404975 320,87.90442212574816 C 336,76.09074780744658 344,27.008455076569494 360,40.15885227464784 C 376,53.309249472726194 384,132.14373469462166 400,153.65640811613991 C 416,175.16908153765817 424,148.76305665291656 440,147.72221938223913 C 456,146.6813821115617 464,155.41643508668642 480,148.4522217627528 C 496,141.48800843881918 504,132.7797569480253 520,112.90115276257103 C 536,93.0225485771168 544,65.0901756278456 560,49.05920083548159 C 576,33.028226043117584 584,31.204995464328924 600,32.746278800751014 C 616,34.287562137173104 624,33.35637286280422 640,56.765617517592034 C 656,80.17486217237985 664,149.55367638881725 680,149.79250207469008 C 696,150.0313277605629 704,70.69447635811211 720,57.95974594695613 C 736,45.22501553580015 744,74.0059405409642 760,86.1188500189102 C 776,98.23175949685618 784,128.82009633915686 800,118.52429333668606 C 816,108.22849033421525 824,29.3186759950835 840,34.639835006556154 C 856,39.960994018028806 864,134.66043728193702 880,145.13008839404932 C 896,155.59973950616163 904,105.7146528078848 920,86.98809056711761 C 936,68.26152832635043 944,51.423634969121956 960,51.497277190213396 C 976,51.570919411304835 992,80.18449677610253 1000,87.35630167257482" fill="none" stroke="#1151FB" stroke-width="2px" />   <g>   		<circle cx="0" cy="50.74791841818018" r="6" fill="#1151FB" />,		<circle cx="40" cy="62.40626455893343" r="6" fill="#1151FB" />,		<circle cx="80" cy="117.11376753700452" r="6" fill="#1151FB" />,		<circle cx="120" cy="133.31391191326207" r="6" fill="#1151FB" />,		<circle cx="160" cy="91.22127272436575" r="6" fill="#1151FB" />,		<circle cx="200" cy="52.99827599516695" r="6" fill="#1151FB" />,		<circle cx="240" cy="49.51356844257697" r="6" fill="#1151FB" />,		<circle cx="280" cy="99.22722386615577" r="6" fill="#1151FB" />,		<circle cx="320" cy="87.90442212574816" r="6" fill="#1151FB" />,		<circle cx="360" cy="40.15885227464784" r="6" fill="#1151FB" />,		<circle cx="400" cy="153.65640811613991" r="6" fill="#1151FB" />,		<circle cx="440" cy="147.72221938223913" r="6" fill="#1151FB" />,		<circle cx="480" cy="148.4522217627528" r="6" fill="#1151FB" />,		<circle cx="520" cy="112.90115276257103" r="6" fill="#1151FB" />,		<circle cx="560" cy="49.05920083548159" r="6" fill="#1151FB" />,		<circle cx="600" cy="32.746278800751014" r="6" fill="#1151FB" />,		<circle cx="640" cy="56.765617517592034" r="6" fill="#1151FB" />,		<circle cx="680" cy="149.79250207469008" r="6" fill="#1151FB" />,		<circle cx="720" cy="57.95974594695613" r="6" fill="#1151FB" />,		<circle cx="760" cy="86.1188500189102" r="6" fill="#1151FB" />,		<circle cx="800" cy="118.52429333668606" r="6" fill="#1151FB" />,		<circle cx="840" cy="34.639835006556154" r="6" fill="#1151FB" />,		<circle cx="880" cy="145.13008839404932" r="6" fill="#1151FB" />,		<circle cx="920" cy="86.98809056711761" r="6" fill="#1151FB" />,		<circle cx="960" cy="51.497277190213396" r="6" fill="#1151FB" />,		<circle cx="1000" cy="87.35630167257482" r="6" fill="#1151FB" />   </g> </svg>