<svg   id="chart"   width="1000"   height="200"   viewBox="0 0 1000 200"   xmlns="http://www.w3.org/2000/svg" >      <path d="M 0,41.732963579496385 C 8,56.32376719436053 24,111.30642889595693 40,114.6869816538171 C 56,118.06753441167727 64,65.10916819064266 80,58.635727368797234 C 96,52.162286546951805 104,69.85128200794095 120,82.31977754458995 C 136,94.78827308123896 144,130.29246285612862 160,120.97820505204223 C 176,111.66394724795583 184,54.08529958896625 200,35.74848852415795 C 216,17.411677459349647 224,16.84421299033504 240,29.294149728000722 C 256,41.7440864656664 264,92.88631647251486 280,97.99817221248634 C 296,103.11002795245781 304,59.013609292954214 320,54.85342842785812 C 336,50.693247562762025 344,66.68518098600336 360,77.19726788700586 C 376,87.70935478800837 384,108.11905352645636 400,107.41386293287063 C 416,106.70867233928492 424,70.5814662546808 440,73.67131491907728 C 456,76.76116358347376 464,114.84324020720953 480,122.86310625485302 C 496,130.8829723024965 504,129.9153538270401 520,113.77064515729475 C 536,97.62593648754941 544,45.20448088302 560,42.139562906126315 C 576,39.07464492923263 584,92.22871494741767 600,98.44605527282636 C 616,104.66339559823504 624,64.53012043231995 640,73.22626453316974 C 656,81.92240863401953 664,126.13953684048242 680,141.92677577707533 C 696,157.71401471366826 704,152.9921918979351 720,152.16245921613432 C 736,151.33272653433355 744,153.86881053377846 760,137.77811236807148 C 776,121.68741420236452 784,93.11620856782748 800,71.70896838759953 C 816,50.30172820737157 824,24.429032123223354 840,30.74191146693167 C 856,37.054790810639986 864,77.43628560259347 880,103.2733651061411 C 896,129.11044460968873 904,152.0936053672266 920,159.9273089846698 C 936,167.761012602113 944,145.5534687329609 960,142.44188319335706 C 976,139.3302976537532 992,143.98388166799185 1000,144.36938128665054,L 1000 200,L 0 200Z" fill="#1151fb1a" />   <path d="M 0,41.732963579496385 C 8,56.32376719436053 24,111.30642889595693 40,114.6869816538171 C 56,118.06753441167727 64,65.10916819064266 80,58.635727368797234 C 96,52.162286546951805 104,69.85128200794095 120,82.31977754458995 C 136,94.78827308123896 144,130.29246285612862 160,120.97820505204223 C 176,111.66394724795583 184,54.08529958896625 200,35.74848852415795 C 216,17.411677459349647 224,16.84421299033504 240,29.294149728000722 C 256,41.7440864656664 264,92.88631647251486 280,97.99817221248634 C 296,103.11002795245781 304,59.013609292954214 320,54.85342842785812 C 336,50.693247562762025 344,66.68518098600336 360,77.19726788700586 C 376,87.70935478800837 384,108.11905352645636 400,107.41386293287063 C 416,106.70867233928492 424,70.5814662546808 440,73.67131491907728 C 456,76.76116358347376 464,114.84324020720953 480,122.86310625485302 C 496,130.8829723024965 504,129.9153538270401 520,113.77064515729475 C 536,97.62593648754941 544,45.20448088302 560,42.139562906126315 C 576,39.07464492923263 584,92.22871494741767 600,98.44605527282636 C 616,104.66339559823504 624,64.53012043231995 640,73.22626453316974 C 656,81.92240863401953 664,126.13953684048242 680,141.92677577707533 C 696,157.71401471366826 704,152.9921918979351 720,152.16245921613432 C 736,151.33272653433355 744,153.86881053377846 760,137.77811236807148 C 776,121.68741420236452 784,93.11620856782748 800,71.70896838759953 C 816,50.30172820737157 824,24.429032123223354 840,30.74191146693167 C 856,37.054790810639986 864,77.43628560259347 880,103.2733651061411 C 896,129.11044460968873 904,152.0936053672266 920,159.9273089846698 C 936,167.761012602113 944,145.5534687329609 960,142.44188319335706 C 976,139.3302976537532 992,143.98388166799185 1000,144.36938128665054" fill="none" stroke="#1151FB" stroke-width="2px" />   <g>   		<circle cx="0" cy="41.732963579496385" r="6" fill="#1151FB" />,		<circle cx="40" cy="114.6869816538171" r="6" fill="#1151FB" />,		<circle cx="80" cy="58.635727368797234" r="6" fill="#1151FB" />,		<circle cx="120" cy="82.31977754458995" r="6" fill="#1151FB" />,		<circle cx="160" cy="120.97820505204223" r="6" fill="#1151FB" />,		<circle cx="200" cy="35.74848852415795" r="6" fill="#1151FB" />,		<circle cx="240" cy="29.294149728000722" r="6" fill="#1151FB" />,		<circle cx="280" cy="97.99817221248634" r="6" fill="#1151FB" />,		<circle cx="320" cy="54.85342842785812" r="6" fill="#1151FB" />,		<circle cx="360" cy="77.19726788700586" r="6" fill="#1151FB" />,		<circle cx="400" cy="107.41386293287063" r="6" fill="#1151FB" />,		<circle cx="440" cy="73.67131491907728" r="6" fill="#1151FB" />,		<circle cx="480" cy="122.86310625485302" r="6" fill="#1151FB" />,		<circle cx="520" cy="113.77064515729475" r="6" fill="#1151FB" />,		<circle cx="560" cy="42.139562906126315" r="6" fill="#1151FB" />,		<circle cx="600" cy="98.44605527282636" r="6" fill="#1151FB" />,		<circle cx="640" cy="73.22626453316974" r="6" fill="#1151FB" />,		<circle cx="680" cy="141.92677577707533" r="6" fill="#1151FB" />,		<circle cx="720" cy="152.16245921613432" r="6" fill="#1151FB" />,		<circle cx="760" cy="137.77811236807148" r="6" fill="#1151FB" />,		<circle cx="800" cy="71.70896838759953" r="6" fill="#1151FB" />,		<circle cx="840" cy="30.74191146693167" r="6" fill="#1151FB" />,		<circle cx="880" cy="103.2733651061411" r="6" fill="#1151FB" />,		<circle cx="920" cy="159.9273089846698" r="6" fill="#1151FB" />,		<circle cx="960" cy="142.44188319335706" r="6" fill="#1151FB" />,		<circle cx="1000" cy="144.36938128665054" r="6" fill="#1151FB" />   </g> </svg>